<?xml version="1.0" encoding="utf-8" standalone="no"?>
<!DOCTYPE svg PUBLIC "-//W3C//DTD SVG 1.1//EN"
  "http://www.w3.org/Graphics/SVG/1.1/DTD/svg11.dtd">
<svg xmlns:xlink="http://www.w3.org/1999/xlink" width="1080pt" height="360pt" viewBox="0 0 1080 360" xmlns="http://www.w3.org/2000/svg" version="1.1">
 <metadata>
  <rdf:RDF xmlns:dc="http://purl.org/dc/elements/1.1/" xmlns:cc="http://creativecommons.org/ns#" xmlns:rdf="http://www.w3.org/1999/02/22-rdf-syntax-ns#">
   <cc:Work>
    <dc:type rdf:resource="http://purl.org/dc/dcmitype/StillImage"/>
    <dc:date>2025-05-19T13:56:33.897897</dc:date>
    <dc:format>image/svg+xml</dc:format>
    <dc:creator>
     <cc:Agent>
      <dc:title>Matplotlib v3.7.5, https://matplotlib.org/</dc:title>
     </cc:Agent>
    </dc:creator>
   </cc:Work>
  </rdf:RDF>
 </metadata>
 <defs>
  <style type="text/css">*{stroke-linejoin: round; stroke-linecap: butt}</style>
 </defs>
 <g id="figure_1">
  <g id="patch_1">
   <path d="M 0 360 
L 1080 360 
L 1080 0 
L 0 0 
z
" style="fill: #ffffff"/>
  </g>
  <g id="axes_1">
   <g id="patch_2">
    <path d="M 135 320.4 
L 972 320.4 
L 972 43.2 
L 135 43.2 
z
" style="fill: #ffffff"/>
   </g>
   <g id="patch_3">
    <path d="M 173.045455 320.4 
L 179.084416 320.4 
L 179.084416 176.85 
L 173.045455 176.85 
z
" clip-path="url(#p92e2dfcabc)" style="fill: #1f77b4"/>
   </g>
   <g id="patch_4">
    <path d="M 180.594156 320.4 
L 186.633117 320.4 
L 186.633117 176.85 
L 180.594156 176.85 
z
" clip-path="url(#p92e2dfcabc)" style="fill: #1f77b4"/>
   </g>
   <g id="patch_5">
    <path d="M 188.142857 320.4 
L 194.181818 320.4 
L 194.181818 254.4 
L 188.142857 254.4 
z
" clip-path="url(#p92e2dfcabc)" style="fill: #1f77b4"/>
   </g>
   <g id="patch_6">
    <path d="M 195.691558 320.4 
L 201.730519 320.4 
L 201.730519 57.06 
L 195.691558 57.06 
z
" clip-path="url(#p92e2dfcabc)" style="fill: #1f77b4"/>
   </g>
   <g id="patch_7">
    <path d="M 203.24026 320.4 
L 209.279221 320.4 
L 209.279221 302.25 
L 203.24026 302.25 
z
" clip-path="url(#p92e2dfcabc)" style="fill: #1f77b4"/>
   </g>
   <g id="patch_8">
    <path d="M 210.788961 320.4 
L 216.827922 320.4 
L 216.827922 56.4 
L 210.788961 56.4 
z
" clip-path="url(#p92e2dfcabc)" style="fill: #1f77b4"/>
   </g>
   <g id="patch_9">
    <path d="M 218.337662 320.4 
L 224.376623 320.4 
L 224.376623 306.54 
L 218.337662 306.54 
z
" clip-path="url(#p92e2dfcabc)" style="fill: #1f77b4"/>
   </g>
   <g id="patch_10">
    <path d="M 225.886364 320.4 
L 231.925325 320.4 
L 231.925325 306.54 
L 225.886364 306.54 
z
" clip-path="url(#p92e2dfcabc)" style="fill: #1f77b4"/>
   </g>
   <g id="patch_11">
    <path d="M 233.435065 320.4 
L 239.474026 320.4 
L 239.474026 304.89 
L 233.435065 304.89 
z
" clip-path="url(#p92e2dfcabc)" style="fill: #1f77b4"/>
   </g>
   <g id="patch_12">
    <path d="M 240.983766 320.4 
L 247.022727 320.4 
L 247.022727 302.58 
L 240.983766 302.58 
z
" clip-path="url(#p92e2dfcabc)" style="fill: #1f77b4"/>
   </g>
   <g id="patch_13">
    <path d="M 248.532468 320.4 
L 254.571429 320.4 
L 254.571429 305.22 
L 248.532468 305.22 
z
" clip-path="url(#p92e2dfcabc)" style="fill: #1f77b4"/>
   </g>
   <g id="patch_14">
    <path d="M 256.081169 320.4 
L 262.12013 320.4 
L 262.12013 309.51 
L 256.081169 309.51 
z
" clip-path="url(#p92e2dfcabc)" style="fill: #1f77b4"/>
   </g>
   <g id="patch_15">
    <path d="M 263.62987 320.4 
L 269.668831 320.4 
L 269.668831 278.16 
L 263.62987 278.16 
z
" clip-path="url(#p92e2dfcabc)" style="fill: #1f77b4"/>
   </g>
   <g id="patch_16">
    <path d="M 271.178571 320.4 
L 277.217532 320.4 
L 277.217532 288.06 
L 271.178571 288.06 
z
" clip-path="url(#p92e2dfcabc)" style="fill: #1f77b4"/>
   </g>
   <g id="patch_17">
    <path d="M 278.727273 320.4 
L 284.766234 320.4 
L 284.766234 306.21 
L 278.727273 306.21 
z
" clip-path="url(#p92e2dfcabc)" style="fill: #1f77b4"/>
   </g>
   <g id="patch_18">
    <path d="M 286.275974 320.4 
L 292.314935 320.4 
L 292.314935 292.35 
L 286.275974 292.35 
z
" clip-path="url(#p92e2dfcabc)" style="fill: #1f77b4"/>
   </g>
   <g id="patch_19">
    <path d="M 293.824675 320.4 
L 299.863636 320.4 
L 299.863636 290.37 
L 293.824675 290.37 
z
" clip-path="url(#p92e2dfcabc)" style="fill: #1f77b4"/>
   </g>
   <g id="patch_20">
    <path d="M 301.373377 320.4 
L 307.412338 320.4 
L 307.412338 303.9 
L 301.373377 303.9 
z
" clip-path="url(#p92e2dfcabc)" style="fill: #1f77b4"/>
   </g>
   <g id="patch_21">
    <path d="M 308.922078 320.4 
L 314.961039 320.4 
L 314.961039 306.21 
L 308.922078 306.21 
z
" clip-path="url(#p92e2dfcabc)" style="fill: #1f77b4"/>
   </g>
   <g id="patch_22">
    <path d="M 316.470779 320.4 
L 322.50974 320.4 
L 322.50974 279.81 
L 316.470779 279.81 
z
" clip-path="url(#p92e2dfcabc)" style="fill: #1f77b4"/>
   </g>
   <g id="patch_23">
    <path d="M 324.019481 320.4 
L 330.058442 320.4 
L 330.058442 304.89 
L 324.019481 304.89 
z
" clip-path="url(#p92e2dfcabc)" style="fill: #1f77b4"/>
   </g>
   <g id="patch_24">
    <path d="M 331.568182 320.4 
L 337.607143 320.4 
L 337.607143 300.93 
L 331.568182 300.93 
z
" clip-path="url(#p92e2dfcabc)" style="fill: #1f77b4"/>
   </g>
   <g id="patch_25">
    <path d="M 339.116883 320.4 
L 345.155844 320.4 
L 345.155844 299.94 
L 339.116883 299.94 
z
" clip-path="url(#p92e2dfcabc)" style="fill: #1f77b4"/>
   </g>
   <g id="patch_26">
    <path d="M 346.665584 320.4 
L 352.704545 320.4 
L 352.704545 285.09 
L 346.665584 285.09 
z
" clip-path="url(#p92e2dfcabc)" style="fill: #1f77b4"/>
   </g>
   <g id="patch_27">
    <path d="M 354.214286 320.4 
L 360.253247 320.4 
L 360.253247 304.89 
L 354.214286 304.89 
z
" clip-path="url(#p92e2dfcabc)" style="fill: #1f77b4"/>
   </g>
   <g id="patch_28">
    <path d="M 361.762987 320.4 
L 367.801948 320.4 
L 367.801948 297.63 
L 361.762987 297.63 
z
" clip-path="url(#p92e2dfcabc)" style="fill: #1f77b4"/>
   </g>
   <g id="patch_29">
    <path d="M 369.311688 320.4 
L 375.350649 320.4 
L 375.350649 296.31 
L 369.311688 296.31 
z
" clip-path="url(#p92e2dfcabc)" style="fill: #1f77b4"/>
   </g>
   <g id="patch_30">
    <path d="M 376.86039 320.4 
L 382.899351 320.4 
L 382.899351 297.3 
L 376.86039 297.3 
z
" clip-path="url(#p92e2dfcabc)" style="fill: #1f77b4"/>
   </g>
   <g id="patch_31">
    <path d="M 384.409091 320.4 
L 390.448052 320.4 
L 390.448052 303.9 
L 384.409091 303.9 
z
" clip-path="url(#p92e2dfcabc)" style="fill: #1f77b4"/>
   </g>
   <g id="patch_32">
    <path d="M 391.957792 320.4 
L 397.996753 320.4 
L 397.996753 303.57 
L 391.957792 303.57 
z
" clip-path="url(#p92e2dfcabc)" style="fill: #1f77b4"/>
   </g>
   <g id="patch_33">
    <path d="M 399.506494 320.4 
L 405.545455 320.4 
L 405.545455 301.59 
L 399.506494 301.59 
z
" clip-path="url(#p92e2dfcabc)" style="fill: #1f77b4"/>
   </g>
   <g id="patch_34">
    <path d="M 407.055195 320.4 
L 413.094156 320.4 
L 413.094156 298.29 
L 407.055195 298.29 
z
" clip-path="url(#p92e2dfcabc)" style="fill: #1f77b4"/>
   </g>
   <g id="patch_35">
    <path d="M 414.603896 320.4 
L 420.642857 320.4 
L 420.642857 303.24 
L 414.603896 303.24 
z
" clip-path="url(#p92e2dfcabc)" style="fill: #1f77b4"/>
   </g>
   <g id="patch_36">
    <path d="M 422.152597 320.4 
L 428.191558 320.4 
L 428.191558 298.95 
L 422.152597 298.95 
z
" clip-path="url(#p92e2dfcabc)" style="fill: #1f77b4"/>
   </g>
   <g id="patch_37">
    <path d="M 429.701299 320.4 
L 435.74026 320.4 
L 435.74026 297.96 
L 429.701299 297.96 
z
" clip-path="url(#p92e2dfcabc)" style="fill: #1f77b4"/>
   </g>
   <g id="patch_38">
    <path d="M 437.25 320.4 
L 443.288961 320.4 
L 443.288961 295.65 
L 437.25 295.65 
z
" clip-path="url(#p92e2dfcabc)" style="fill: #1f77b4"/>
   </g>
   <g id="patch_39">
    <path d="M 444.798701 320.4 
L 450.837662 320.4 
L 450.837662 299.28 
L 444.798701 299.28 
z
" clip-path="url(#p92e2dfcabc)" style="fill: #1f77b4"/>
   </g>
   <g id="patch_40">
    <path d="M 452.347403 320.4 
L 458.386364 320.4 
L 458.386364 302.91 
L 452.347403 302.91 
z
" clip-path="url(#p92e2dfcabc)" style="fill: #1f77b4"/>
   </g>
   <g id="patch_41">
    <path d="M 459.896104 320.4 
L 465.935065 320.4 
L 465.935065 299.28 
L 459.896104 299.28 
z
" clip-path="url(#p92e2dfcabc)" style="fill: #1f77b4"/>
   </g>
   <g id="patch_42">
    <path d="M 467.444805 320.4 
L 473.483766 320.4 
L 473.483766 292.35 
L 467.444805 292.35 
z
" clip-path="url(#p92e2dfcabc)" style="fill: #1f77b4"/>
   </g>
   <g id="patch_43">
    <path d="M 474.993506 320.4 
L 481.032468 320.4 
L 481.032468 298.29 
L 474.993506 298.29 
z
" clip-path="url(#p92e2dfcabc)" style="fill: #1f77b4"/>
   </g>
   <g id="patch_44">
    <path d="M 482.542208 320.4 
L 488.581169 320.4 
L 488.581169 298.29 
L 482.542208 298.29 
z
" clip-path="url(#p92e2dfcabc)" style="fill: #1f77b4"/>
   </g>
   <g id="patch_45">
    <path d="M 490.090909 320.4 
L 496.12987 320.4 
L 496.12987 305.55 
L 490.090909 305.55 
z
" clip-path="url(#p92e2dfcabc)" style="fill: #1f77b4"/>
   </g>
   <g id="patch_46">
    <path d="M 497.63961 320.4 
L 503.678571 320.4 
L 503.678571 309.18 
L 497.63961 309.18 
z
" clip-path="url(#p92e2dfcabc)" style="fill: #1f77b4"/>
   </g>
   <g id="patch_47">
    <path d="M 505.188312 320.4 
L 511.227273 320.4 
L 511.227273 309.18 
L 505.188312 309.18 
z
" clip-path="url(#p92e2dfcabc)" style="fill: #1f77b4"/>
   </g>
   <g id="patch_48">
    <path d="M 512.737013 320.4 
L 518.775974 320.4 
L 518.775974 303.57 
L 512.737013 303.57 
z
" clip-path="url(#p92e2dfcabc)" style="fill: #1f77b4"/>
   </g>
   <g id="patch_49">
    <path d="M 520.285714 320.4 
L 526.324675 320.4 
L 526.324675 287.73 
L 520.285714 287.73 
z
" clip-path="url(#p92e2dfcabc)" style="fill: #1f77b4"/>
   </g>
   <g id="patch_50">
    <path d="M 527.834416 320.4 
L 533.873377 320.4 
L 533.873377 287.4 
L 527.834416 287.4 
z
" clip-path="url(#p92e2dfcabc)" style="fill: #1f77b4"/>
   </g>
   <g id="patch_51">
    <path d="M 535.383117 320.4 
L 541.422078 320.4 
L 541.422078 306.54 
L 535.383117 306.54 
z
" clip-path="url(#p92e2dfcabc)" style="fill: #1f77b4"/>
   </g>
   <g id="patch_52">
    <path d="M 542.931818 320.4 
L 548.970779 320.4 
L 548.970779 302.58 
L 542.931818 302.58 
z
" clip-path="url(#p92e2dfcabc)" style="fill: #1f77b4"/>
   </g>
   <g id="patch_53">
    <path d="M 550.480519 320.4 
L 556.519481 320.4 
L 556.519481 291.36 
L 550.480519 291.36 
z
" clip-path="url(#p92e2dfcabc)" style="fill: #1f77b4"/>
   </g>
   <g id="patch_54">
    <path d="M 558.029221 320.4 
L 564.068182 320.4 
L 564.068182 294 
L 558.029221 294 
z
" clip-path="url(#p92e2dfcabc)" style="fill: #1f77b4"/>
   </g>
   <g id="patch_55">
    <path d="M 565.577922 320.4 
L 571.616883 320.4 
L 571.616883 310.17 
L 565.577922 310.17 
z
" clip-path="url(#p92e2dfcabc)" style="fill: #1f77b4"/>
   </g>
   <g id="patch_56">
    <path d="M 573.126623 320.4 
L 579.165584 320.4 
L 579.165584 299.28 
L 573.126623 299.28 
z
" clip-path="url(#p92e2dfcabc)" style="fill: #1f77b4"/>
   </g>
   <g id="patch_57">
    <path d="M 580.675325 320.4 
L 586.714286 320.4 
L 586.714286 292.02 
L 580.675325 292.02 
z
" clip-path="url(#p92e2dfcabc)" style="fill: #1f77b4"/>
   </g>
   <g id="patch_58">
    <path d="M 588.224026 320.4 
L 594.262987 320.4 
L 594.262987 282.78 
L 588.224026 282.78 
z
" clip-path="url(#p92e2dfcabc)" style="fill: #1f77b4"/>
   </g>
   <g id="patch_59">
    <path d="M 595.772727 320.4 
L 601.811688 320.4 
L 601.811688 300.27 
L 595.772727 300.27 
z
" clip-path="url(#p92e2dfcabc)" style="fill: #1f77b4"/>
   </g>
   <g id="patch_60">
    <path d="M 603.321429 320.4 
L 609.36039 320.4 
L 609.36039 293.67 
L 603.321429 293.67 
z
" clip-path="url(#p92e2dfcabc)" style="fill: #1f77b4"/>
   </g>
   <g id="patch_61">
    <path d="M 610.87013 320.4 
L 616.909091 320.4 
L 616.909091 294.66 
L 610.87013 294.66 
z
" clip-path="url(#p92e2dfcabc)" style="fill: #1f77b4"/>
   </g>
   <g id="patch_62">
    <path d="M 618.418831 320.4 
L 624.457792 320.4 
L 624.457792 306.87 
L 618.418831 306.87 
z
" clip-path="url(#p92e2dfcabc)" style="fill: #1f77b4"/>
   </g>
   <g id="patch_63">
    <path d="M 625.967532 320.4 
L 632.006494 320.4 
L 632.006494 298.62 
L 625.967532 298.62 
z
" clip-path="url(#p92e2dfcabc)" style="fill: #1f77b4"/>
   </g>
   <g id="patch_64">
    <path d="M 633.516234 320.4 
L 639.555195 320.4 
L 639.555195 306.21 
L 633.516234 306.21 
z
" clip-path="url(#p92e2dfcabc)" style="fill: #1f77b4"/>
   </g>
   <g id="patch_65">
    <path d="M 641.064935 320.4 
L 647.103896 320.4 
L 647.103896 307.2 
L 641.064935 307.2 
z
" clip-path="url(#p92e2dfcabc)" style="fill: #1f77b4"/>
   </g>
   <g id="patch_66">
    <path d="M 648.613636 320.4 
L 654.652597 320.4 
L 654.652597 291.69 
L 648.613636 291.69 
z
" clip-path="url(#p92e2dfcabc)" style="fill: #1f77b4"/>
   </g>
   <g id="patch_67">
    <path d="M 656.162338 320.4 
L 662.201299 320.4 
L 662.201299 309.84 
L 656.162338 309.84 
z
" clip-path="url(#p92e2dfcabc)" style="fill: #1f77b4"/>
   </g>
   <g id="patch_68">
    <path d="M 663.711039 320.4 
L 669.75 320.4 
L 669.75 295.32 
L 663.711039 295.32 
z
" clip-path="url(#p92e2dfcabc)" style="fill: #1f77b4"/>
   </g>
   <g id="patch_69">
    <path d="M 671.25974 320.4 
L 677.298701 320.4 
L 677.298701 302.25 
L 671.25974 302.25 
z
" clip-path="url(#p92e2dfcabc)" style="fill: #1f77b4"/>
   </g>
   <g id="patch_70">
    <path d="M 678.808442 320.4 
L 684.847403 320.4 
L 684.847403 308.85 
L 678.808442 308.85 
z
" clip-path="url(#p92e2dfcabc)" style="fill: #1f77b4"/>
   </g>
   <g id="patch_71">
    <path d="M 686.357143 320.4 
L 692.396104 320.4 
L 692.396104 307.53 
L 686.357143 307.53 
z
" clip-path="url(#p92e2dfcabc)" style="fill: #1f77b4"/>
   </g>
   <g id="patch_72">
    <path d="M 693.905844 320.4 
L 699.944805 320.4 
L 699.944805 304.89 
L 693.905844 304.89 
z
" clip-path="url(#p92e2dfcabc)" style="fill: #1f77b4"/>
   </g>
   <g id="patch_73">
    <path d="M 701.454545 320.4 
L 707.493506 320.4 
L 707.493506 307.86 
L 701.454545 307.86 
z
" clip-path="url(#p92e2dfcabc)" style="fill: #1f77b4"/>
   </g>
   <g id="patch_74">
    <path d="M 709.003247 320.4 
L 715.042208 320.4 
L 715.042208 305.55 
L 709.003247 305.55 
z
" clip-path="url(#p92e2dfcabc)" style="fill: #1f77b4"/>
   </g>
   <g id="patch_75">
    <path d="M 716.551948 320.4 
L 722.590909 320.4 
L 722.590909 302.91 
L 716.551948 302.91 
z
" clip-path="url(#p92e2dfcabc)" style="fill: #1f77b4"/>
   </g>
   <g id="patch_76">
    <path d="M 724.100649 320.4 
L 730.13961 320.4 
L 730.13961 309.18 
L 724.100649 309.18 
z
" clip-path="url(#p92e2dfcabc)" style="fill: #1f77b4"/>
   </g>
   <g id="patch_77">
    <path d="M 731.649351 320.4 
L 737.688312 320.4 
L 737.688312 301.59 
L 731.649351 301.59 
z
" clip-path="url(#p92e2dfcabc)" style="fill: #1f77b4"/>
   </g>
   <g id="patch_78">
    <path d="M 739.198052 320.4 
L 745.237013 320.4 
L 745.237013 293.34 
L 739.198052 293.34 
z
" clip-path="url(#p92e2dfcabc)" style="fill: #1f77b4"/>
   </g>
   <g id="patch_79">
    <path d="M 746.746753 320.4 
L 752.785714 320.4 
L 752.785714 300.93 
L 746.746753 300.93 
z
" clip-path="url(#p92e2dfcabc)" style="fill: #1f77b4"/>
   </g>
   <g id="patch_80">
    <path d="M 754.295455 320.4 
L 760.334416 320.4 
L 760.334416 304.23 
L 754.295455 304.23 
z
" clip-path="url(#p92e2dfcabc)" style="fill: #1f77b4"/>
   </g>
   <g id="patch_81">
    <path d="M 761.844156 320.4 
L 767.883117 320.4 
L 767.883117 307.2 
L 761.844156 307.2 
z
" clip-path="url(#p92e2dfcabc)" style="fill: #1f77b4"/>
   </g>
   <g id="patch_82">
    <path d="M 769.392857 320.4 
L 775.431818 320.4 
L 775.431818 299.61 
L 769.392857 299.61 
z
" clip-path="url(#p92e2dfcabc)" style="fill: #1f77b4"/>
   </g>
   <g id="patch_83">
    <path d="M 776.941558 320.4 
L 782.980519 320.4 
L 782.980519 307.53 
L 776.941558 307.53 
z
" clip-path="url(#p92e2dfcabc)" style="fill: #1f77b4"/>
   </g>
   <g id="patch_84">
    <path d="M 784.49026 320.4 
L 790.529221 320.4 
L 790.529221 292.68 
L 784.49026 292.68 
z
" clip-path="url(#p92e2dfcabc)" style="fill: #1f77b4"/>
   </g>
   <g id="patch_85">
    <path d="M 792.038961 320.4 
L 798.077922 320.4 
L 798.077922 301.59 
L 792.038961 301.59 
z
" clip-path="url(#p92e2dfcabc)" style="fill: #1f77b4"/>
   </g>
   <g id="patch_86">
    <path d="M 799.587662 320.4 
L 805.626623 320.4 
L 805.626623 308.85 
L 799.587662 308.85 
z
" clip-path="url(#p92e2dfcabc)" style="fill: #1f77b4"/>
   </g>
   <g id="patch_87">
    <path d="M 807.136364 320.4 
L 813.175325 320.4 
L 813.175325 299.28 
L 807.136364 299.28 
z
" clip-path="url(#p92e2dfcabc)" style="fill: #1f77b4"/>
   </g>
   <g id="patch_88">
    <path d="M 814.685065 320.4 
L 820.724026 320.4 
L 820.724026 305.55 
L 814.685065 305.55 
z
" clip-path="url(#p92e2dfcabc)" style="fill: #1f77b4"/>
   </g>
   <g id="patch_89">
    <path d="M 822.233766 320.4 
L 828.272727 320.4 
L 828.272727 292.02 
L 822.233766 292.02 
z
" clip-path="url(#p92e2dfcabc)" style="fill: #1f77b4"/>
   </g>
   <g id="patch_90">
    <path d="M 829.782468 320.4 
L 835.821429 320.4 
L 835.821429 300.93 
L 829.782468 300.93 
z
" clip-path="url(#p92e2dfcabc)" style="fill: #1f77b4"/>
   </g>
   <g id="patch_91">
    <path d="M 837.331169 320.4 
L 843.37013 320.4 
L 843.37013 299.28 
L 837.331169 299.28 
z
" clip-path="url(#p92e2dfcabc)" style="fill: #1f77b4"/>
   </g>
   <g id="patch_92">
    <path d="M 844.87987 320.4 
L 850.918831 320.4 
L 850.918831 308.85 
L 844.87987 308.85 
z
" clip-path="url(#p92e2dfcabc)" style="fill: #1f77b4"/>
   </g>
   <g id="patch_93">
    <path d="M 852.428571 320.4 
L 858.467532 320.4 
L 858.467532 292.35 
L 852.428571 292.35 
z
" clip-path="url(#p92e2dfcabc)" style="fill: #1f77b4"/>
   </g>
   <g id="patch_94">
    <path d="M 859.977273 320.4 
L 866.016234 320.4 
L 866.016234 304.23 
L 859.977273 304.23 
z
" clip-path="url(#p92e2dfcabc)" style="fill: #1f77b4"/>
   </g>
   <g id="patch_95">
    <path d="M 867.525974 320.4 
L 873.564935 320.4 
L 873.564935 292.02 
L 867.525974 292.02 
z
" clip-path="url(#p92e2dfcabc)" style="fill: #1f77b4"/>
   </g>
   <g id="patch_96">
    <path d="M 875.074675 320.4 
L 881.113636 320.4 
L 881.113636 295.65 
L 875.074675 295.65 
z
" clip-path="url(#p92e2dfcabc)" style="fill: #1f77b4"/>
   </g>
   <g id="patch_97">
    <path d="M 882.623377 320.4 
L 888.662338 320.4 
L 888.662338 241.53 
L 882.623377 241.53 
z
" clip-path="url(#p92e2dfcabc)" style="fill: #1f77b4"/>
   </g>
   <g id="patch_98">
    <path d="M 890.172078 320.4 
L 896.211039 320.4 
L 896.211039 308.19 
L 890.172078 308.19 
z
" clip-path="url(#p92e2dfcabc)" style="fill: #1f77b4"/>
   </g>
   <g id="patch_99">
    <path d="M 897.720779 320.4 
L 903.75974 320.4 
L 903.75974 300.93 
L 897.720779 300.93 
z
" clip-path="url(#p92e2dfcabc)" style="fill: #1f77b4"/>
   </g>
   <g id="patch_100">
    <path d="M 905.269481 320.4 
L 911.308442 320.4 
L 911.308442 309.18 
L 905.269481 309.18 
z
" clip-path="url(#p92e2dfcabc)" style="fill: #1f77b4"/>
   </g>
   <g id="patch_101">
    <path d="M 912.818182 320.4 
L 918.857143 320.4 
L 918.857143 301.92 
L 912.818182 301.92 
z
" clip-path="url(#p92e2dfcabc)" style="fill: #1f77b4"/>
   </g>
   <g id="patch_102">
    <path d="M 920.366883 320.4 
L 926.405844 320.4 
L 926.405844 307.53 
L 920.366883 307.53 
z
" clip-path="url(#p92e2dfcabc)" style="fill: #1f77b4"/>
   </g>
   <g id="patch_103">
    <path d="M 927.915584 320.4 
L 933.954545 320.4 
L 933.954545 300.6 
L 927.915584 300.6 
z
" clip-path="url(#p92e2dfcabc)" style="fill: #1f77b4"/>
   </g>
   <g id="matplotlib.axis_1">
    <g id="xtick_1">
     <g id="line2d_1">
      <defs>
       <path id="m0804dbd193" d="M 0 0 
L 0 3.5 
" style="stroke: #000000; stroke-width: 0.8"/>
      </defs>
      <g>
       <use xlink:href="#m0804dbd193" x="176.064935" y="320.4" style="stroke: #000000; stroke-width: 0.8"/>
      </g>
     </g>
     <g id="text_1">
      <!-- 0 -->
      <g transform="translate(172.883685 334.998438) scale(0.1 -0.1)">
       <defs>
        <path id="DejaVuSans-30" d="M 2034 4250 
Q 1547 4250 1301 3770 
Q 1056 3291 1056 2328 
Q 1056 1369 1301 889 
Q 1547 409 2034 409 
Q 2525 409 2770 889 
Q 3016 1369 3016 2328 
Q 3016 3291 2770 3770 
Q 2525 4250 2034 4250 
z
M 2034 4750 
Q 2819 4750 3233 4129 
Q 3647 3509 3647 2328 
Q 3647 1150 3233 529 
Q 2819 -91 2034 -91 
Q 1250 -91 836 529 
Q 422 1150 422 2328 
Q 422 3509 836 4129 
Q 1250 4750 2034 4750 
z
" transform="scale(0.015625)"/>
       </defs>
       <use xlink:href="#DejaVuSans-30"/>
      </g>
     </g>
    </g>
    <g id="xtick_2">
     <g id="line2d_2">
      <g>
       <use xlink:href="#m0804dbd193" x="327.038961" y="320.4" style="stroke: #000000; stroke-width: 0.8"/>
      </g>
     </g>
     <g id="text_2">
      <!-- 20 -->
      <g transform="translate(320.676461 334.998438) scale(0.1 -0.1)">
       <defs>
        <path id="DejaVuSans-32" d="M 1228 531 
L 3431 531 
L 3431 0 
L 469 0 
L 469 531 
Q 828 903 1448 1529 
Q 2069 2156 2228 2338 
Q 2531 2678 2651 2914 
Q 2772 3150 2772 3378 
Q 2772 3750 2511 3984 
Q 2250 4219 1831 4219 
Q 1534 4219 1204 4116 
Q 875 4013 500 3803 
L 500 4441 
Q 881 4594 1212 4672 
Q 1544 4750 1819 4750 
Q 2544 4750 2975 4387 
Q 3406 4025 3406 3419 
Q 3406 3131 3298 2873 
Q 3191 2616 2906 2266 
Q 2828 2175 2409 1742 
Q 1991 1309 1228 531 
z
" transform="scale(0.015625)"/>
       </defs>
       <use xlink:href="#DejaVuSans-32"/>
       <use xlink:href="#DejaVuSans-30" x="63.623047"/>
      </g>
     </g>
    </g>
    <g id="xtick_3">
     <g id="line2d_3">
      <g>
       <use xlink:href="#m0804dbd193" x="478.012987" y="320.4" style="stroke: #000000; stroke-width: 0.8"/>
      </g>
     </g>
     <g id="text_3">
      <!-- 40 -->
      <g transform="translate(471.650487 334.998438) scale(0.1 -0.1)">
       <defs>
        <path id="DejaVuSans-34" d="M 2419 4116 
L 825 1625 
L 2419 1625 
L 2419 4116 
z
M 2253 4666 
L 3047 4666 
L 3047 1625 
L 3713 1625 
L 3713 1100 
L 3047 1100 
L 3047 0 
L 2419 0 
L 2419 1100 
L 313 1100 
L 313 1709 
L 2253 4666 
z
" transform="scale(0.015625)"/>
       </defs>
       <use xlink:href="#DejaVuSans-34"/>
       <use xlink:href="#DejaVuSans-30" x="63.623047"/>
      </g>
     </g>
    </g>
    <g id="xtick_4">
     <g id="line2d_4">
      <g>
       <use xlink:href="#m0804dbd193" x="628.987013" y="320.4" style="stroke: #000000; stroke-width: 0.8"/>
      </g>
     </g>
     <g id="text_4">
      <!-- 60 -->
      <g transform="translate(622.624513 334.998438) scale(0.1 -0.1)">
       <defs>
        <path id="DejaVuSans-36" d="M 2113 2584 
Q 1688 2584 1439 2293 
Q 1191 2003 1191 1497 
Q 1191 994 1439 701 
Q 1688 409 2113 409 
Q 2538 409 2786 701 
Q 3034 994 3034 1497 
Q 3034 2003 2786 2293 
Q 2538 2584 2113 2584 
z
M 3366 4563 
L 3366 3988 
Q 3128 4100 2886 4159 
Q 2644 4219 2406 4219 
Q 1781 4219 1451 3797 
Q 1122 3375 1075 2522 
Q 1259 2794 1537 2939 
Q 1816 3084 2150 3084 
Q 2853 3084 3261 2657 
Q 3669 2231 3669 1497 
Q 3669 778 3244 343 
Q 2819 -91 2113 -91 
Q 1303 -91 875 529 
Q 447 1150 447 2328 
Q 447 3434 972 4092 
Q 1497 4750 2381 4750 
Q 2619 4750 2861 4703 
Q 3103 4656 3366 4563 
z
" transform="scale(0.015625)"/>
       </defs>
       <use xlink:href="#DejaVuSans-36"/>
       <use xlink:href="#DejaVuSans-30" x="63.623047"/>
      </g>
     </g>
    </g>
    <g id="xtick_5">
     <g id="line2d_5">
      <g>
       <use xlink:href="#m0804dbd193" x="779.961039" y="320.4" style="stroke: #000000; stroke-width: 0.8"/>
      </g>
     </g>
     <g id="text_5">
      <!-- 80 -->
      <g transform="translate(773.598539 334.998438) scale(0.1 -0.1)">
       <defs>
        <path id="DejaVuSans-38" d="M 2034 2216 
Q 1584 2216 1326 1975 
Q 1069 1734 1069 1313 
Q 1069 891 1326 650 
Q 1584 409 2034 409 
Q 2484 409 2743 651 
Q 3003 894 3003 1313 
Q 3003 1734 2745 1975 
Q 2488 2216 2034 2216 
z
M 1403 2484 
Q 997 2584 770 2862 
Q 544 3141 544 3541 
Q 544 4100 942 4425 
Q 1341 4750 2034 4750 
Q 2731 4750 3128 4425 
Q 3525 4100 3525 3541 
Q 3525 3141 3298 2862 
Q 3072 2584 2669 2484 
Q 3125 2378 3379 2068 
Q 3634 1759 3634 1313 
Q 3634 634 3220 271 
Q 2806 -91 2034 -91 
Q 1263 -91 848 271 
Q 434 634 434 1313 
Q 434 1759 690 2068 
Q 947 2378 1403 2484 
z
M 1172 3481 
Q 1172 3119 1398 2916 
Q 1625 2713 2034 2713 
Q 2441 2713 2670 2916 
Q 2900 3119 2900 3481 
Q 2900 3844 2670 4047 
Q 2441 4250 2034 4250 
Q 1625 4250 1398 4047 
Q 1172 3844 1172 3481 
z
" transform="scale(0.015625)"/>
       </defs>
       <use xlink:href="#DejaVuSans-38"/>
       <use xlink:href="#DejaVuSans-30" x="63.623047"/>
      </g>
     </g>
    </g>
    <g id="xtick_6">
     <g id="line2d_6">
      <g>
       <use xlink:href="#m0804dbd193" x="930.935065" y="320.4" style="stroke: #000000; stroke-width: 0.8"/>
      </g>
     </g>
     <g id="text_6">
      <!-- 100 -->
      <g transform="translate(921.391315 334.998438) scale(0.1 -0.1)">
       <defs>
        <path id="DejaVuSans-31" d="M 794 531 
L 1825 531 
L 1825 4091 
L 703 3866 
L 703 4441 
L 1819 4666 
L 2450 4666 
L 2450 531 
L 3481 531 
L 3481 0 
L 794 0 
L 794 531 
z
" transform="scale(0.015625)"/>
       </defs>
       <use xlink:href="#DejaVuSans-31"/>
       <use xlink:href="#DejaVuSans-30" x="63.623047"/>
       <use xlink:href="#DejaVuSans-30" x="127.246094"/>
      </g>
     </g>
    </g>
   </g>
   <g id="matplotlib.axis_2">
    <g id="ytick_1">
     <g id="line2d_7">
      <defs>
       <path id="md848014dd0" d="M 0 0 
L -3.5 0 
" style="stroke: #000000; stroke-width: 0.8"/>
      </defs>
      <g>
       <use xlink:href="#md848014dd0" x="135" y="320.4" style="stroke: #000000; stroke-width: 0.8"/>
      </g>
     </g>
     <g id="text_7">
      <!-- 0 -->
      <g transform="translate(121.6375 324.199219) scale(0.1 -0.1)">
       <use xlink:href="#DejaVuSans-30"/>
      </g>
     </g>
    </g>
    <g id="ytick_2">
     <g id="line2d_8">
      <g>
       <use xlink:href="#md848014dd0" x="135" y="287.4" style="stroke: #000000; stroke-width: 0.8"/>
      </g>
     </g>
     <g id="text_8">
      <!-- 100 -->
      <g transform="translate(108.9125 291.199219) scale(0.1 -0.1)">
       <use xlink:href="#DejaVuSans-31"/>
       <use xlink:href="#DejaVuSans-30" x="63.623047"/>
       <use xlink:href="#DejaVuSans-30" x="127.246094"/>
      </g>
     </g>
    </g>
    <g id="ytick_3">
     <g id="line2d_9">
      <g>
       <use xlink:href="#md848014dd0" x="135" y="254.4" style="stroke: #000000; stroke-width: 0.8"/>
      </g>
     </g>
     <g id="text_9">
      <!-- 200 -->
      <g transform="translate(108.9125 258.199219) scale(0.1 -0.1)">
       <use xlink:href="#DejaVuSans-32"/>
       <use xlink:href="#DejaVuSans-30" x="63.623047"/>
       <use xlink:href="#DejaVuSans-30" x="127.246094"/>
      </g>
     </g>
    </g>
    <g id="ytick_4">
     <g id="line2d_10">
      <g>
       <use xlink:href="#md848014dd0" x="135" y="221.4" style="stroke: #000000; stroke-width: 0.8"/>
      </g>
     </g>
     <g id="text_10">
      <!-- 300 -->
      <g transform="translate(108.9125 225.199219) scale(0.1 -0.1)">
       <defs>
        <path id="DejaVuSans-33" d="M 2597 2516 
Q 3050 2419 3304 2112 
Q 3559 1806 3559 1356 
Q 3559 666 3084 287 
Q 2609 -91 1734 -91 
Q 1441 -91 1130 -33 
Q 819 25 488 141 
L 488 750 
Q 750 597 1062 519 
Q 1375 441 1716 441 
Q 2309 441 2620 675 
Q 2931 909 2931 1356 
Q 2931 1769 2642 2001 
Q 2353 2234 1838 2234 
L 1294 2234 
L 1294 2753 
L 1863 2753 
Q 2328 2753 2575 2939 
Q 2822 3125 2822 3475 
Q 2822 3834 2567 4026 
Q 2313 4219 1838 4219 
Q 1578 4219 1281 4162 
Q 984 4106 628 3988 
L 628 4550 
Q 988 4650 1302 4700 
Q 1616 4750 1894 4750 
Q 2613 4750 3031 4423 
Q 3450 4097 3450 3541 
Q 3450 3153 3228 2886 
Q 3006 2619 2597 2516 
z
" transform="scale(0.015625)"/>
       </defs>
       <use xlink:href="#DejaVuSans-33"/>
       <use xlink:href="#DejaVuSans-30" x="63.623047"/>
       <use xlink:href="#DejaVuSans-30" x="127.246094"/>
      </g>
     </g>
    </g>
    <g id="ytick_5">
     <g id="line2d_11">
      <g>
       <use xlink:href="#md848014dd0" x="135" y="188.4" style="stroke: #000000; stroke-width: 0.8"/>
      </g>
     </g>
     <g id="text_11">
      <!-- 400 -->
      <g transform="translate(108.9125 192.199219) scale(0.1 -0.1)">
       <use xlink:href="#DejaVuSans-34"/>
       <use xlink:href="#DejaVuSans-30" x="63.623047"/>
       <use xlink:href="#DejaVuSans-30" x="127.246094"/>
      </g>
     </g>
    </g>
    <g id="ytick_6">
     <g id="line2d_12">
      <g>
       <use xlink:href="#md848014dd0" x="135" y="155.4" style="stroke: #000000; stroke-width: 0.8"/>
      </g>
     </g>
     <g id="text_12">
      <!-- 500 -->
      <g transform="translate(108.9125 159.199219) scale(0.1 -0.1)">
       <defs>
        <path id="DejaVuSans-35" d="M 691 4666 
L 3169 4666 
L 3169 4134 
L 1269 4134 
L 1269 2991 
Q 1406 3038 1543 3061 
Q 1681 3084 1819 3084 
Q 2600 3084 3056 2656 
Q 3513 2228 3513 1497 
Q 3513 744 3044 326 
Q 2575 -91 1722 -91 
Q 1428 -91 1123 -41 
Q 819 9 494 109 
L 494 744 
Q 775 591 1075 516 
Q 1375 441 1709 441 
Q 2250 441 2565 725 
Q 2881 1009 2881 1497 
Q 2881 1984 2565 2268 
Q 2250 2553 1709 2553 
Q 1456 2553 1204 2497 
Q 953 2441 691 2322 
L 691 4666 
z
" transform="scale(0.015625)"/>
       </defs>
       <use xlink:href="#DejaVuSans-35"/>
       <use xlink:href="#DejaVuSans-30" x="63.623047"/>
       <use xlink:href="#DejaVuSans-30" x="127.246094"/>
      </g>
     </g>
    </g>
    <g id="ytick_7">
     <g id="line2d_13">
      <g>
       <use xlink:href="#md848014dd0" x="135" y="122.4" style="stroke: #000000; stroke-width: 0.8"/>
      </g>
     </g>
     <g id="text_13">
      <!-- 600 -->
      <g transform="translate(108.9125 126.199219) scale(0.1 -0.1)">
       <use xlink:href="#DejaVuSans-36"/>
       <use xlink:href="#DejaVuSans-30" x="63.623047"/>
       <use xlink:href="#DejaVuSans-30" x="127.246094"/>
      </g>
     </g>
    </g>
    <g id="ytick_8">
     <g id="line2d_14">
      <g>
       <use xlink:href="#md848014dd0" x="135" y="89.4" style="stroke: #000000; stroke-width: 0.8"/>
      </g>
     </g>
     <g id="text_14">
      <!-- 700 -->
      <g transform="translate(108.9125 93.199219) scale(0.1 -0.1)">
       <defs>
        <path id="DejaVuSans-37" d="M 525 4666 
L 3525 4666 
L 3525 4397 
L 1831 0 
L 1172 0 
L 2766 4134 
L 525 4134 
L 525 4666 
z
" transform="scale(0.015625)"/>
       </defs>
       <use xlink:href="#DejaVuSans-37"/>
       <use xlink:href="#DejaVuSans-30" x="63.623047"/>
       <use xlink:href="#DejaVuSans-30" x="127.246094"/>
      </g>
     </g>
    </g>
    <g id="ytick_9">
     <g id="line2d_15">
      <g>
       <use xlink:href="#md848014dd0" x="135" y="56.4" style="stroke: #000000; stroke-width: 0.8"/>
      </g>
     </g>
     <g id="text_15">
      <!-- 800 -->
      <g transform="translate(108.9125 60.199219) scale(0.1 -0.1)">
       <use xlink:href="#DejaVuSans-38"/>
       <use xlink:href="#DejaVuSans-30" x="63.623047"/>
       <use xlink:href="#DejaVuSans-30" x="127.246094"/>
      </g>
     </g>
    </g>
   </g>
   <g id="patch_104">
    <path d="M 135 320.4 
L 135 43.2 
" style="fill: none; stroke: #000000; stroke-width: 0.8; stroke-linejoin: miter; stroke-linecap: square"/>
   </g>
   <g id="patch_105">
    <path d="M 972 320.4 
L 972 43.2 
" style="fill: none; stroke: #000000; stroke-width: 0.8; stroke-linejoin: miter; stroke-linecap: square"/>
   </g>
   <g id="patch_106">
    <path d="M 135 320.4 
L 972 320.4 
" style="fill: none; stroke: #000000; stroke-width: 0.8; stroke-linejoin: miter; stroke-linecap: square"/>
   </g>
   <g id="patch_107">
    <path d="M 135 43.2 
L 972 43.2 
" style="fill: none; stroke: #000000; stroke-width: 0.8; stroke-linejoin: miter; stroke-linecap: square"/>
   </g>
   <g id="text_16">
    <!-- All Data Distribution Among Classes -->
    <g transform="translate(445.272187 37.2) scale(0.12 -0.12)">
     <defs>
      <path id="DejaVuSans-41" d="M 2188 4044 
L 1331 1722 
L 3047 1722 
L 2188 4044 
z
M 1831 4666 
L 2547 4666 
L 4325 0 
L 3669 0 
L 3244 1197 
L 1141 1197 
L 716 0 
L 50 0 
L 1831 4666 
z
" transform="scale(0.015625)"/>
      <path id="DejaVuSans-6c" d="M 603 4863 
L 1178 4863 
L 1178 0 
L 603 0 
L 603 4863 
z
" transform="scale(0.015625)"/>
      <path id="DejaVuSans-20" transform="scale(0.015625)"/>
      <path id="DejaVuSans-44" d="M 1259 4147 
L 1259 519 
L 2022 519 
Q 2988 519 3436 956 
Q 3884 1394 3884 2338 
Q 3884 3275 3436 3711 
Q 2988 4147 2022 4147 
L 1259 4147 
z
M 628 4666 
L 1925 4666 
Q 3281 4666 3915 4102 
Q 4550 3538 4550 2338 
Q 4550 1131 3912 565 
Q 3275 0 1925 0 
L 628 0 
L 628 4666 
z
" transform="scale(0.015625)"/>
      <path id="DejaVuSans-61" d="M 2194 1759 
Q 1497 1759 1228 1600 
Q 959 1441 959 1056 
Q 959 750 1161 570 
Q 1363 391 1709 391 
Q 2188 391 2477 730 
Q 2766 1069 2766 1631 
L 2766 1759 
L 2194 1759 
z
M 3341 1997 
L 3341 0 
L 2766 0 
L 2766 531 
Q 2569 213 2275 61 
Q 1981 -91 1556 -91 
Q 1019 -91 701 211 
Q 384 513 384 1019 
Q 384 1609 779 1909 
Q 1175 2209 1959 2209 
L 2766 2209 
L 2766 2266 
Q 2766 2663 2505 2880 
Q 2244 3097 1772 3097 
Q 1472 3097 1187 3025 
Q 903 2953 641 2809 
L 641 3341 
Q 956 3463 1253 3523 
Q 1550 3584 1831 3584 
Q 2591 3584 2966 3190 
Q 3341 2797 3341 1997 
z
" transform="scale(0.015625)"/>
      <path id="DejaVuSans-74" d="M 1172 4494 
L 1172 3500 
L 2356 3500 
L 2356 3053 
L 1172 3053 
L 1172 1153 
Q 1172 725 1289 603 
Q 1406 481 1766 481 
L 2356 481 
L 2356 0 
L 1766 0 
Q 1100 0 847 248 
Q 594 497 594 1153 
L 594 3053 
L 172 3053 
L 172 3500 
L 594 3500 
L 594 4494 
L 1172 4494 
z
" transform="scale(0.015625)"/>
      <path id="DejaVuSans-69" d="M 603 3500 
L 1178 3500 
L 1178 0 
L 603 0 
L 603 3500 
z
M 603 4863 
L 1178 4863 
L 1178 4134 
L 603 4134 
L 603 4863 
z
" transform="scale(0.015625)"/>
      <path id="DejaVuSans-73" d="M 2834 3397 
L 2834 2853 
Q 2591 2978 2328 3040 
Q 2066 3103 1784 3103 
Q 1356 3103 1142 2972 
Q 928 2841 928 2578 
Q 928 2378 1081 2264 
Q 1234 2150 1697 2047 
L 1894 2003 
Q 2506 1872 2764 1633 
Q 3022 1394 3022 966 
Q 3022 478 2636 193 
Q 2250 -91 1575 -91 
Q 1294 -91 989 -36 
Q 684 19 347 128 
L 347 722 
Q 666 556 975 473 
Q 1284 391 1588 391 
Q 1994 391 2212 530 
Q 2431 669 2431 922 
Q 2431 1156 2273 1281 
Q 2116 1406 1581 1522 
L 1381 1569 
Q 847 1681 609 1914 
Q 372 2147 372 2553 
Q 372 3047 722 3315 
Q 1072 3584 1716 3584 
Q 2034 3584 2315 3537 
Q 2597 3491 2834 3397 
z
" transform="scale(0.015625)"/>
      <path id="DejaVuSans-72" d="M 2631 2963 
Q 2534 3019 2420 3045 
Q 2306 3072 2169 3072 
Q 1681 3072 1420 2755 
Q 1159 2438 1159 1844 
L 1159 0 
L 581 0 
L 581 3500 
L 1159 3500 
L 1159 2956 
Q 1341 3275 1631 3429 
Q 1922 3584 2338 3584 
Q 2397 3584 2469 3576 
Q 2541 3569 2628 3553 
L 2631 2963 
z
" transform="scale(0.015625)"/>
      <path id="DejaVuSans-62" d="M 3116 1747 
Q 3116 2381 2855 2742 
Q 2594 3103 2138 3103 
Q 1681 3103 1420 2742 
Q 1159 2381 1159 1747 
Q 1159 1113 1420 752 
Q 1681 391 2138 391 
Q 2594 391 2855 752 
Q 3116 1113 3116 1747 
z
M 1159 2969 
Q 1341 3281 1617 3432 
Q 1894 3584 2278 3584 
Q 2916 3584 3314 3078 
Q 3713 2572 3713 1747 
Q 3713 922 3314 415 
Q 2916 -91 2278 -91 
Q 1894 -91 1617 61 
Q 1341 213 1159 525 
L 1159 0 
L 581 0 
L 581 4863 
L 1159 4863 
L 1159 2969 
z
" transform="scale(0.015625)"/>
      <path id="DejaVuSans-75" d="M 544 1381 
L 544 3500 
L 1119 3500 
L 1119 1403 
Q 1119 906 1312 657 
Q 1506 409 1894 409 
Q 2359 409 2629 706 
Q 2900 1003 2900 1516 
L 2900 3500 
L 3475 3500 
L 3475 0 
L 2900 0 
L 2900 538 
Q 2691 219 2414 64 
Q 2138 -91 1772 -91 
Q 1169 -91 856 284 
Q 544 659 544 1381 
z
M 1991 3584 
L 1991 3584 
z
" transform="scale(0.015625)"/>
      <path id="DejaVuSans-6f" d="M 1959 3097 
Q 1497 3097 1228 2736 
Q 959 2375 959 1747 
Q 959 1119 1226 758 
Q 1494 397 1959 397 
Q 2419 397 2687 759 
Q 2956 1122 2956 1747 
Q 2956 2369 2687 2733 
Q 2419 3097 1959 3097 
z
M 1959 3584 
Q 2709 3584 3137 3096 
Q 3566 2609 3566 1747 
Q 3566 888 3137 398 
Q 2709 -91 1959 -91 
Q 1206 -91 779 398 
Q 353 888 353 1747 
Q 353 2609 779 3096 
Q 1206 3584 1959 3584 
z
" transform="scale(0.015625)"/>
      <path id="DejaVuSans-6e" d="M 3513 2113 
L 3513 0 
L 2938 0 
L 2938 2094 
Q 2938 2591 2744 2837 
Q 2550 3084 2163 3084 
Q 1697 3084 1428 2787 
Q 1159 2491 1159 1978 
L 1159 0 
L 581 0 
L 581 3500 
L 1159 3500 
L 1159 2956 
Q 1366 3272 1645 3428 
Q 1925 3584 2291 3584 
Q 2894 3584 3203 3211 
Q 3513 2838 3513 2113 
z
" transform="scale(0.015625)"/>
      <path id="DejaVuSans-6d" d="M 3328 2828 
Q 3544 3216 3844 3400 
Q 4144 3584 4550 3584 
Q 5097 3584 5394 3201 
Q 5691 2819 5691 2113 
L 5691 0 
L 5113 0 
L 5113 2094 
Q 5113 2597 4934 2840 
Q 4756 3084 4391 3084 
Q 3944 3084 3684 2787 
Q 3425 2491 3425 1978 
L 3425 0 
L 2847 0 
L 2847 2094 
Q 2847 2600 2669 2842 
Q 2491 3084 2119 3084 
Q 1678 3084 1418 2786 
Q 1159 2488 1159 1978 
L 1159 0 
L 581 0 
L 581 3500 
L 1159 3500 
L 1159 2956 
Q 1356 3278 1631 3431 
Q 1906 3584 2284 3584 
Q 2666 3584 2933 3390 
Q 3200 3197 3328 2828 
z
" transform="scale(0.015625)"/>
      <path id="DejaVuSans-67" d="M 2906 1791 
Q 2906 2416 2648 2759 
Q 2391 3103 1925 3103 
Q 1463 3103 1205 2759 
Q 947 2416 947 1791 
Q 947 1169 1205 825 
Q 1463 481 1925 481 
Q 2391 481 2648 825 
Q 2906 1169 2906 1791 
z
M 3481 434 
Q 3481 -459 3084 -895 
Q 2688 -1331 1869 -1331 
Q 1566 -1331 1297 -1286 
Q 1028 -1241 775 -1147 
L 775 -588 
Q 1028 -725 1275 -790 
Q 1522 -856 1778 -856 
Q 2344 -856 2625 -561 
Q 2906 -266 2906 331 
L 2906 616 
Q 2728 306 2450 153 
Q 2172 0 1784 0 
Q 1141 0 747 490 
Q 353 981 353 1791 
Q 353 2603 747 3093 
Q 1141 3584 1784 3584 
Q 2172 3584 2450 3431 
Q 2728 3278 2906 2969 
L 2906 3500 
L 3481 3500 
L 3481 434 
z
" transform="scale(0.015625)"/>
      <path id="DejaVuSans-43" d="M 4122 4306 
L 4122 3641 
Q 3803 3938 3442 4084 
Q 3081 4231 2675 4231 
Q 1875 4231 1450 3742 
Q 1025 3253 1025 2328 
Q 1025 1406 1450 917 
Q 1875 428 2675 428 
Q 3081 428 3442 575 
Q 3803 722 4122 1019 
L 4122 359 
Q 3791 134 3420 21 
Q 3050 -91 2638 -91 
Q 1578 -91 968 557 
Q 359 1206 359 2328 
Q 359 3453 968 4101 
Q 1578 4750 2638 4750 
Q 3056 4750 3426 4639 
Q 3797 4528 4122 4306 
z
" transform="scale(0.015625)"/>
      <path id="DejaVuSans-65" d="M 3597 1894 
L 3597 1613 
L 953 1613 
Q 991 1019 1311 708 
Q 1631 397 2203 397 
Q 2534 397 2845 478 
Q 3156 559 3463 722 
L 3463 178 
Q 3153 47 2828 -22 
Q 2503 -91 2169 -91 
Q 1331 -91 842 396 
Q 353 884 353 1716 
Q 353 2575 817 3079 
Q 1281 3584 2069 3584 
Q 2775 3584 3186 3129 
Q 3597 2675 3597 1894 
z
M 3022 2063 
Q 3016 2534 2758 2815 
Q 2500 3097 2075 3097 
Q 1594 3097 1305 2825 
Q 1016 2553 972 2059 
L 3022 2063 
z
" transform="scale(0.015625)"/>
     </defs>
     <use xlink:href="#DejaVuSans-41"/>
     <use xlink:href="#DejaVuSans-6c" x="68.408203"/>
     <use xlink:href="#DejaVuSans-6c" x="96.191406"/>
     <use xlink:href="#DejaVuSans-20" x="123.974609"/>
     <use xlink:href="#DejaVuSans-44" x="155.761719"/>
     <use xlink:href="#DejaVuSans-61" x="232.763672"/>
     <use xlink:href="#DejaVuSans-74" x="294.042969"/>
     <use xlink:href="#DejaVuSans-61" x="333.251953"/>
     <use xlink:href="#DejaVuSans-20" x="394.53125"/>
     <use xlink:href="#DejaVuSans-44" x="426.318359"/>
     <use xlink:href="#DejaVuSans-69" x="503.320312"/>
     <use xlink:href="#DejaVuSans-73" x="531.103516"/>
     <use xlink:href="#DejaVuSans-74" x="583.203125"/>
     <use xlink:href="#DejaVuSans-72" x="622.412109"/>
     <use xlink:href="#DejaVuSans-69" x="663.525391"/>
     <use xlink:href="#DejaVuSans-62" x="691.308594"/>
     <use xlink:href="#DejaVuSans-75" x="754.785156"/>
     <use xlink:href="#DejaVuSans-74" x="818.164062"/>
     <use xlink:href="#DejaVuSans-69" x="857.373047"/>
     <use xlink:href="#DejaVuSans-6f" x="885.15625"/>
     <use xlink:href="#DejaVuSans-6e" x="946.337891"/>
     <use xlink:href="#DejaVuSans-20" x="1009.716797"/>
     <use xlink:href="#DejaVuSans-41" x="1041.503906"/>
     <use xlink:href="#DejaVuSans-6d" x="1109.912109"/>
     <use xlink:href="#DejaVuSans-6f" x="1207.324219"/>
     <use xlink:href="#DejaVuSans-6e" x="1268.505859"/>
     <use xlink:href="#DejaVuSans-67" x="1331.884766"/>
     <use xlink:href="#DejaVuSans-20" x="1395.361328"/>
     <use xlink:href="#DejaVuSans-43" x="1427.148438"/>
     <use xlink:href="#DejaVuSans-6c" x="1496.972656"/>
     <use xlink:href="#DejaVuSans-61" x="1524.755859"/>
     <use xlink:href="#DejaVuSans-73" x="1586.035156"/>
     <use xlink:href="#DejaVuSans-73" x="1638.134766"/>
     <use xlink:href="#DejaVuSans-65" x="1690.234375"/>
     <use xlink:href="#DejaVuSans-73" x="1751.757812"/>
    </g>
   </g>
  </g>
 </g>
 <defs>
  <clipPath id="p92e2dfcabc">
   <rect x="135" y="43.2" width="837" height="277.2"/>
  </clipPath>
 </defs>
</svg>
